<?xml version="1.0" encoding="utf-8"?>
<!-- Generator: Adobe Illustrator 22.0.1, SVG Export Plug-In . SVG Version: 6.00 Build 0)  -->
<svg version="1.1" id="Layer_1" xmlns="http://www.w3.org/2000/svg" xmlns:xlink="http://www.w3.org/1999/xlink" x="0px" y="0px"
	 viewBox="0 0 1400 1000" style="enable-background:new 0 0 1400 1000;" xml:space="preserve">
<style type="text/css">
	.st0{fill:#2D477B;}
	.st1{opacity:0.87;fill:#182F54;}
	.st2{opacity:0.21;fill:#4570B5;}
	.st3{opacity:0.47;fill:#182F54;}
	.st4{opacity:0.47;fill:#2D477B;}
	.st5{opacity:0.17;fill:#7DACEF;}
	.st6{fill:#FFFFFF;}
	.st7{opacity:5.000000e-02;fill:#AACEF9;}
	.st8{opacity:0.1;fill:#AACEF9;}
	.st9{opacity:0.15;fill:#AACEF9;}
	.st10{opacity:0.17;fill:#AACEF9;}
	.st11{fill:#9FC7F7;}
	.st12{opacity:0.59;fill:#629FDD;}
	.st13{fill:#629FDD;}
	.st14{fill:#C0DDF9;}
	.st15{fill:#3A88C9;}
	.st16{fill:#7AB9ED;}
	.st17{opacity:0.46;fill:#7AB9ED;}
</style>
<g>
	<g>
		<rect class="st0" width="1400" height="1000"/>
		<path class="st1" d="M0,1000h1036c-27.7-91.2-115.1-180.1-258.2-239.2c-276-114-150-183-177-486C588.1,131.9,483.9,48.4,377.4,0H0
			V1000z"/>
		<path class="st2" d="M834.8,235.8c18,330,105.2,460.8,435.2,337.8c41.1-15.3,98.9-49.9,129.9-74.5V0H657.2
			C747.4,30.7,827.3,97.4,834.8,235.8z"/>
		<path class="st2" d="M0,759.1V1000h587.3c-13.3-27.3-25.8-56-37.5-86.1C424.3,589.5,341.8,717.3,0,759.1z"/>
		<path class="st0" d="M282.8,826.9c-37.6-69.8-176.7-36-282.8,2.6V1000h409.8C357,936.5,306.8,871.4,282.8,826.9z"/>
		<path class="st3" d="M1355,403c16.4-8.6,31-18.5,45-27.8V0H829.1C1060.1,66.6,890.6,645.6,1355,403z"/>
		<path class="st4" d="M435.8,523.8C579.7,356.3,384.2,142.3,208.3,0H0v583.2C169.9,596,374.9,594.7,435.8,523.8z"/>
		<path class="st2" d="M0,375.5c124.8,8,239.5-3.4,258.8-67.7C292.7,194.6,97.7,98.5,0,58.1V375.5z"/>
		<path class="st1" d="M1400,496.5c-111.1,94.6-318,236.4-455,120.5C750,452,830,304,773,283c-57-21-244.2,240.8-40.2,372.8
			C918.9,776.3,1090,831.8,1093.6,1000H1400V496.5z"/>
		<path class="st5" d="M0,213.5v313.6c148.8-5.5,310.3-26.6,339.8-90.3C371,369.4,179.4,280.2,0,213.5z"/>
		<path class="st5" d="M1280.8,504.8c37.8,17.4,78.3,34.5,119.2,52V0H977.9C989.7,191.5,1082,413.3,1280.8,504.8z"/>
		<path class="st5" d="M621.8,868.5c-96.1-97.1-394.6-36-621.8,29.8V1000h806.2C735,960.3,668.5,915.6,621.8,868.5z"/>
		<path class="st1" d="M1400,0h-339c17.1,138.3,83.2,403.3,339,384.1V0z"/>
	</g>
	<g>
		<path class="st6" d="M985.6,429.5l3.4,13.8c0.9,3.6,3.8,6.5,7.4,7.4l13.8,3.4l-13.8,3.4c-3.6,0.9-6.5,3.8-7.4,7.4l-3.4,13.8
			l-3.4-13.8c-0.9-3.6-3.8-6.5-7.4-7.4l-13.8-3.4l13.8-3.4c3.6-0.9,6.5-3.8,7.4-7.4L985.6,429.5z"/>
		<path class="st6" d="M1186.2,716.9l3.4,13.8c0.9,3.6,3.8,6.5,7.4,7.4l13.8,3.4L1197,745c-3.6,0.9-6.5,3.8-7.4,7.4l-3.4,13.8
			l-3.4-13.8c-0.9-3.6-3.8-6.5-7.4-7.4l-13.8-3.4l13.8-3.4c3.6-0.9,6.5-3.8,7.4-7.4L1186.2,716.9z"/>
		<path class="st6" d="M1214.2,108.9l3.4,13.8c0.9,3.6,3.8,6.5,7.4,7.4l13.8,3.4L1225,137c-3.6,0.9-6.5,3.8-7.4,7.4l-3.4,13.8
			l-3.4-13.8c-0.9-3.6-3.8-6.5-7.4-7.4l-13.8-3.4l13.8-3.4c3.6-0.9,6.5-3.8,7.4-7.4L1214.2,108.9z"/>
		<path class="st6" d="M930.2,834.6l2.8,11.1c0.7,2.9,3,5.2,6,6l11.1,2.8l-11.1,2.8c-2.9,0.7-5.2,3-6,6l-2.8,11.1l-2.8-11.1
			c-0.7-2.9-3-5.2-6-6l-11.1-2.8l11.1-2.8c2.9-0.7,5.2-3,6-6L930.2,834.6z"/>
		<path class="st6" d="M323.6,177.5l3.4,13.8c0.9,3.6,3.8,6.5,7.4,7.4l13.8,3.4l-13.8,3.4c-3.6,0.9-6.5,3.8-7.4,7.4l-3.4,13.8
			l-3.4-13.8c-0.9-3.6-3.8-6.5-7.4-7.4l-13.8-3.4l13.8-3.4c3.6-0.9,6.5-3.8,7.4-7.4L323.6,177.5z"/>
		<path class="st6" d="M758.4,535.3l1.5,5.9c0.4,1.6,1.6,2.8,3.2,3.2l5.9,1.5l-5.9,1.5c-1.6,0.4-2.8,1.6-3.2,3.2l-1.5,5.9l-1.5-5.9
			c-0.4-1.6-1.6-2.8-3.2-3.2l-5.9-1.5l5.9-1.5c1.6-0.4,2.8-1.6,3.2-3.2L758.4,535.3z"/>
		<path class="st6" d="M142.5,128.8l3.2,12.8c0.8,3.4,3.5,6,6.8,6.8l12.8,3.2l-12.8,3.2c-3.4,0.8-6,3.5-6.8,6.8l-3.2,12.8l-3.2-12.8
			c-0.8-3.4-3.5-6-6.8-6.8l-12.8-3.2l12.8-3.2c3.4-0.8,6-3.5,6.8-6.8L142.5,128.8z"/>
		<path class="st6" d="M409.8,590.4l1.6,6.3c0.4,1.7,1.7,2.9,3.4,3.4l6.3,1.6l-6.3,1.6c-1.7,0.4-2.9,1.7-3.4,3.4l-1.6,6.3l-1.6-6.3
			c-0.4-1.7-1.7-2.9-3.4-3.4l-6.3-1.6l6.3-1.6c1.7-0.4,2.9-1.7,3.4-3.4L409.8,590.4z"/>
		<path class="st6" d="M186.2,766.8l2.5,10.2c0.7,2.7,2.8,4.8,5.5,5.5l10.2,2.5l-10.2,2.5c-2.7,0.7-4.8,2.8-5.5,5.5l-2.5,10.2
			l-2.5-10.2c-0.7-2.7-2.8-4.8-5.5-5.5L168,785l10.2-2.5c2.7-0.7,4.8-2.8,5.5-5.5L186.2,766.8z"/>
		<g>
			<path class="st7" d="M895.3,381.2c0,186.8-151.4,338.3-338.3,338.3c-114.2,0-215.2-56.6-276.5-143.4
				c-9.8-13.9-18.6-28.5-26.2-43.8c-12.7-25.4-22.3-52.6-28.3-81.2c-4.8-22.5-7.2-45.9-7.2-69.9C218.8,194.4,370.2,43,557,43
				c20.6,0,40.7,1.8,60.2,5.3c28.2,5.1,55.1,13.6,80.4,25.2c21,9.6,40.9,21.3,59.4,34.9c49.7,36.5,89,86.2,112.9,143.9
				c13.1,31.9,21.6,66.1,24.4,102v0C894.9,363.3,895.3,372.2,895.3,381.2z"/>
			<path class="st8" d="M859.2,381.2c0,166.9-135.3,302.2-302.2,302.2c-102.1,0-192.3-50.6-247-128.1c-8.7-12.4-16.6-25.5-23.4-39.1
				c-11.3-22.7-19.9-47-25.3-72.5c-4.3-20.1-6.5-41-6.5-62.4c0-166.9,135.3-302.2,302.2-302.2c18.4,0,36.3,1.6,53.8,4.8
				c25.2,4.5,49.2,12.1,71.8,22.5c18.8,8.6,36.6,19.1,53,31.2c44.4,32.6,79.5,77,100.8,128.6c11.7,28.5,19.3,59.1,21.8,91.1v0
				C858.9,365.2,859.2,373.2,859.2,381.2z"/>
			<path class="st9" d="M821.2,381.2c0,145.9-118.3,264.1-264.1,264.1c-89.2,0-168.1-44.2-215.9-112c-7.6-10.8-14.5-22.3-20.5-34.2
				c-9.9-19.8-17.4-41.1-22.1-63.4c-3.7-17.6-5.7-35.8-5.7-54.6c0-145.9,118.3-264.1,264.1-264.1c16.1,0,31.8,1.4,47,4.2
				c22,3.9,43,10.6,62.8,19.7c16.4,7.5,32,16.7,46.4,27.2c38.8,28.5,69.5,67.3,88.1,112.4c10.3,24.9,16.8,51.6,19,79.6v0
				C820.9,367.2,821.2,374.2,821.2,381.2z"/>
			<path class="st10" d="M777.8,381.2C777.8,503.2,679,602,557,602c-74.6,0-140.5-37-180.5-93.6c-6.4-9.1-12.1-18.6-17.1-28.6
				c-8.3-16.6-14.6-34.3-18.5-53c-3.1-14.7-4.7-30-4.7-45.6c0-121.9,98.8-220.8,220.8-220.8c13.4,0,26.6,1.2,39.3,3.5
				c18.4,3.3,36,8.9,52.5,16.4c13.7,6.3,26.7,13.9,38.8,22.8c32.4,23.8,58.1,56.3,73.7,93.9c8.6,20.8,14.1,43.2,15.9,66.6v0
				C777.6,369.5,777.8,375.4,777.8,381.2z"/>
			<g>
				<path class="st11" d="M749.1,381.2c0,106.1-86,192-192,192c-64.9,0-122.2-32.2-157-81.4c-5.6-7.9-10.6-16.2-14.9-24.9
					c-7.2-14.4-12.7-29.9-16.1-46.1c-2.7-12.8-4.1-26.1-4.1-39.7c0-106,86-192,192-192c11.7,0,23.1,1,34.2,3
					c16,2.9,31.3,7.7,45.6,14.3c11.9,5.5,23.2,12.1,33.7,19.8c28.2,20.7,50.5,48.9,64.1,81.7c7.5,18.1,12.2,37.5,13.8,57.9v0
					C748.9,371,749.1,376.1,749.1,381.2z"/>
				<path class="st12" d="M748.5,366L748.5,366c-1.6-20.4-6.4-39.8-13.8-57.9c-13.5-32.8-35.9-61-64.1-81.7
					c-10.5-7.7-21.8-14.3-33.7-19.8c-3.5-1.6-7-3.1-10.6-4.5c12.2,14.7,22.3,31.3,29.7,49.3c7.5,18.1,12.2,37.5,13.8,57.9v0
					c0.4,5,0.6,10.1,0.6,15.2c0,106.1-86,192-192,192c-24.4,0-47.7-4.6-69.2-12.9c35.2,42.5,88.4,69.6,147.9,69.6
					c106.1,0,192-86,192-192C749.1,376.1,748.9,371,748.5,366z"/>
				<g>
					<circle class="st11" cx="556.4" cy="386.1" r="52.6"/>
					<path class="st13" d="M556.4,333.5c-1.2,0-2.3,0-3.4,0.1c9.5,8.6,15.4,21.1,15.4,34.9c0,26.1-21.1,47.2-47.2,47.2
						c-3,0-6-0.3-8.8-0.8c9.4,14.4,25.6,23.9,44.1,23.9c29.1,0,52.6-23.6,52.6-52.6S585.5,333.5,556.4,333.5z"/>
					<path class="st14" d="M507.9,387.5c0-29.1,23.6-52.6,52.6-52.6c5.1,0,10,0.7,14.6,2.1c-5.8-2.2-12.1-3.4-18.7-3.4
						c-29.1,0-52.6,23.6-52.6,52.6c0,24,16,44.2,38,50.5C522,429.1,507.9,409.9,507.9,387.5z"/>
				</g>
				<g>
					<circle class="st11" cx="473.2" cy="274.6" r="38.8"/>
					<path class="st13" d="M473.2,235.8c-0.8,0-1.7,0-2.5,0.1c7,6.4,11.3,15.5,11.3,25.7c0,19.2-15.6,34.8-34.8,34.8
						c-2.2,0-4.4-0.2-6.5-0.6c6.9,10.6,18.9,17.6,32.4,17.6c21.4,0,38.8-17.4,38.8-38.8C512,253.2,494.6,235.8,473.2,235.8z"/>
					<path class="st14" d="M437.5,275.6c0-21.4,17.4-38.8,38.8-38.8c3.7,0,7.4,0.5,10.8,1.5c-4.3-1.6-8.9-2.5-13.8-2.5
						c-21.4,0-38.8,17.4-38.8,38.8c0,17.7,11.8,32.6,28,37.2C447.8,306.2,437.5,292.1,437.5,275.6z"/>
				</g>
				<g>
					<path class="st11" d="M670.6,226.4c-3.6,20.9-21.8,36.8-43.7,36.8c-4.3,0-8.4-0.6-12.3-1.8c-0.6-0.2-1.2-0.3-1.7-0.5
						c-0.6-0.2-1.1-0.4-1.7-0.6c-1.7-0.6-3.3-1.3-4.8-2.2c0,0-0.1,0-0.1-0.1c-0.4-0.2-0.7-0.4-1.1-0.6c-1.3-0.7-2.5-1.5-3.7-2.3
						c-1.4-1-2.6-2-3.9-3.1c-0.4-0.4-0.9-0.8-1.3-1.2c-0.4-0.4-0.8-0.7-1.2-1.2c-0.1-0.1-0.2-0.2-0.3-0.3c-0.3-0.3-0.6-0.7-1-1
						c-0.8-0.8-1.5-1.7-2.2-2.6c-0.5-0.7-1.1-1.4-1.6-2.2c-0.4-0.6-0.8-1.2-1.1-1.8c-0.3-0.5-0.7-1.1-1-1.6
						c-0.4-0.8-0.8-1.6-1.2-2.4c-0.3-0.5-0.5-1.1-0.7-1.7c-0.3-0.6-0.5-1.2-0.7-1.8c-0.1-0.1-0.1-0.2-0.1-0.3
						c-0.2-0.5-0.4-1.1-0.5-1.6c-0.7-2-1.2-4.1-1.5-6.3c-0.1-0.3-0.1-0.5-0.1-0.8c-0.1-0.5-0.1-1.1-0.2-1.6
						c-0.2-1.6-0.3-3.1-0.3-4.7c0-0.9,0-1.8,0.1-2.7c0-0.6,0.1-1.2,0.1-1.8c0-0.5,0.1-1,0.2-1.6c0-0.4,0.1-0.8,0.2-1.2
						c0-0.1,0-0.2,0-0.3c0.1-0.5,0.2-1,0.3-1.6c0.1-0.6,0.3-1.2,0.4-1.8c0.1-0.4,0.2-0.8,0.3-1.2c0.1-0.3,0.1-0.5,0.2-0.7
						c0.1-0.3,0.2-0.6,0.3-0.9c0.6-1.8,1.3-3.6,2.2-5.4c0.1-0.3,0.3-0.7,0.5-1c0.2-0.4,0.4-0.8,0.6-1.2c0.3-0.6,0.6-1.1,1-1.7
						c0.4-0.6,0.7-1.2,1.2-1.8c0.4-0.6,0.8-1.2,1.2-1.7h0c1.3,0.2,2.5,0.5,3.7,0.7C622.8,198.5,648.5,210.2,670.6,226.4z"/>
					<path class="st13" d="M670.6,226.4c-3.6,20.9-21.8,36.8-43.7,36.8c-15.6,0-29.2-8-37.2-20.1c2.4,0.5,4.9,0.7,7.4,0.7
						c21.1,0,38.4-16.4,39.7-37.2C648.8,212,660.1,218.7,670.6,226.4z"/>
					<path class="st14" d="M614.5,261.4c-0.6-0.2-1.2-0.3-1.7-0.5c-0.6-0.2-1.1-0.4-1.7-0.6c-1.7-0.6-3.3-1.4-4.8-2.2
						c0,0-0.1,0-0.1-0.1c-0.4-0.2-0.7-0.4-1.1-0.6c-1.3-0.7-2.5-1.5-3.7-2.3c-1.4-1-2.6-2-3.9-3.1c-0.4-0.4-0.9-0.8-1.3-1.2
						c-0.4-0.4-0.8-0.7-1.2-1.2c-0.1-0.1-0.2-0.2-0.3-0.3c-0.3-0.3-0.6-0.7-1-1c-0.8-0.8-1.5-1.7-2.2-2.6c-0.5-0.7-1.1-1.4-1.6-2.2
						c-0.4-0.6-0.8-1.2-1.1-1.8c-0.3-0.5-0.7-1.1-1-1.6c-0.4-0.8-0.8-1.6-1.2-2.4c-0.3-0.5-0.5-1.1-0.7-1.7
						c-0.3-0.6-0.5-1.2-0.7-1.8c-0.1-0.1-0.1-0.2-0.1-0.3c-0.2-0.5-0.4-1.1-0.5-1.6c-0.7-2-1.2-4.1-1.5-6.3
						c-0.1-0.3-0.1-0.5-0.1-0.8c-0.1-0.5-0.1-1.1-0.2-1.6c-0.2-1.6-0.3-3.1-0.3-4.7c0-0.9,0-1.8,0.1-2.7c0-0.6,0.1-1.2,0.1-1.8
						c0-0.5,0.1-1,0.2-1.6c0-0.4,0.1-0.8,0.2-1.2c0-0.1,0-0.2,0-0.3c0.1-0.5,0.2-1,0.3-1.6c0.1-0.6,0.3-1.2,0.4-1.8
						c0.1-0.4,0.2-0.8,0.3-1.2c0.1-0.3,0.1-0.5,0.2-0.7c0.1-0.3,0.2-0.6,0.3-0.9c0.6-1.8,1.3-3.6,2.2-5.4c0.1-0.3,0.3-0.7,0.5-1
						c0.2-0.4,0.4-0.8,0.6-1.2c0.3-0.6,0.6-1.1,1-1.7c0.4-0.6,0.7-1.2,1.2-1.8c0.4-0.6,0.8-1.2,1.2-1.7h0c1.3,0.2,2.5,0.5,3.7,0.7
						c-5.7,7.5-9.1,16.8-9.1,26.9C585.9,238.9,597.8,255,614.5,261.4z"/>
				</g>
				<g>
					<path class="st11" d="M425.1,455.6c0,16.6-10.4,30.7-25,36.2c-14.8-20.9-25.5-45-30.9-71c5.2-2.6,11-4,17.2-4
						C407.7,416.9,425.1,434.2,425.1,455.6z"/>
					<path class="st13" d="M425.1,455.6c0,16.6-10.4,30.7-25,36.2c-5.6-7.9-10.6-16.2-14.9-24.9c6.2-6.3,10-14.9,10-24.3
						c0-10.2-4.4-19.3-11.3-25.7c0.8-0.1,1.7-0.1,2.5-0.1C407.7,416.9,425.1,434.2,425.1,455.6z"/>
					<path class="st14" d="M369.1,420.9L369.1,420.9c5.2-2.6,11-4,17.2-4c4.8,0,9.5,0.9,13.8,2.5c-3.4-1-7-1.5-10.8-1.5
						c-7.2,0-13.9,2-19.7,5.4L369.1,420.9z"/>
				</g>
				<g>
					<circle class="st11" cx="593.9" cy="515.1" r="35.1"/>
					<path class="st13" d="M593.9,480c-0.8,0-1.5,0-2.3,0.1c6.3,5.8,10.3,14,10.3,23.3c0,17.4-14.1,31.5-31.5,31.5
						c-2,0-4-0.2-5.9-0.6c6.3,9.6,17.1,15.9,29.4,15.9c19.4,0,35.1-15.7,35.1-35.1C629,495.7,613.3,480,593.9,480z"/>
					<path class="st14" d="M561.5,516c0-19.4,15.7-35.1,35.1-35.1c3.4,0,6.7,0.5,9.8,1.4c-3.9-1.5-8.1-2.3-12.5-2.3
						c-19.4,0-35.1,15.7-35.1,35.1c0,16,10.7,29.5,25.3,33.7C570.9,543.7,561.5,531,561.5,516z"/>
				</g>
				<g>
					<path class="st11" d="M748.5,366L748.5,366c-6.8,8.1-16.9,13.2-28.3,13.2c-20.4,0-37-16.6-37-37s16.6-37,37-37
						c5.1,0,10,1,14.4,2.9C742.1,326.2,746.9,345.6,748.5,366z"/>
					<path class="st13" d="M748.5,366c-6.8,8-16.9,13.2-28.3,13.2c-13,0-24.4-6.7-31-16.8c2,0.4,4.1,0.6,6.2,0.6
						c18.3,0,33.2-14.9,33.2-33.2c0-9.7-4.2-18.5-10.8-24.5c0.8-0.1,1.6-0.1,2.4-0.1c5.1,0,10,1,14.4,2.9
						C742.1,326.2,746.9,345.6,748.5,366z"/>
					<path class="st14" d="M686.1,343.1c0-20.4,16.6-37,37-37c3.6,0,7,0.5,10.3,1.5c-4.1-1.6-8.5-2.4-13.2-2.4
						c-20.4,0-37,16.6-37,37c0,16.9,11.3,31.1,26.7,35.5C696,372.4,686.1,358.9,686.1,343.1z"/>
				</g>
			</g>
		</g>
		<g>
			<circle class="st13" cx="674" cy="760" r="27.6"/>
			<path class="st15" d="M676.9,732.6c3.8,4.7,6.1,10.7,6.1,17.3c0,15.2-12.4,27.6-27.6,27.6c-1,0-1.9-0.1-2.9-0.2
				c5.1,6.3,12.8,10.3,21.5,10.3c15.2,0,27.6-12.4,27.6-27.6C701.6,745.7,690.8,734,676.9,732.6z"/>
		</g>
		<g>
			<circle class="st13" cx="1160" cy="355" r="44.1"/>
			<path class="st15" d="M1164.6,311.2c6.1,7.6,9.8,17.2,9.8,27.6c0,24.3-19.7,44.1-44.1,44.1c-1.6,0-3.1-0.1-4.6-0.2
				c8.1,10,20.5,16.4,34.3,16.4c24.3,0,44.1-19.7,44.1-44.1C1204.1,332.2,1186.8,313.5,1164.6,311.2z"/>
		</g>
		<g>
			<path class="st7" d="M1235.6,662.4c0,77-62.4,139.4-139.4,139.4c-47.1,0-88.7-23.3-114-59.1c-4-5.7-7.7-11.8-10.8-18.1
				c-5.2-10.5-9.2-21.7-11.7-33.5c-2-9.3-3-18.9-3-28.8c0-77,62.4-139.4,139.4-139.4c8.5,0,16.8,0.8,24.8,2.2
				c11.6,2.1,22.7,5.6,33.1,10.4c8.7,4,16.9,8.8,24.5,14.4c20.5,15,36.7,35.5,46.5,59.3c5.4,13.1,8.9,27.3,10,42v0
				C1235.4,654.9,1235.6,658.6,1235.6,662.4z"/>
			<path class="st8" d="M1220.7,662.4c0,68.8-55.8,124.6-124.6,124.6c-42.1,0-79.3-20.9-101.8-52.8c-3.6-5.1-6.8-10.5-9.7-16.1
				c-4.7-9.3-8.2-19.4-10.4-29.9c-1.8-8.3-2.7-16.9-2.7-25.7c0-68.8,55.8-124.6,124.6-124.6c7.6,0,15,0.7,22.2,2
				c10.4,1.9,20.3,5,29.6,9.3c7.7,3.5,15.1,7.9,21.9,12.8c18.3,13.4,32.8,31.7,41.6,53c4.8,11.7,7.9,24.4,9,37.6v0
				C1220.6,655.7,1220.7,659,1220.7,662.4z"/>
			<path class="st9" d="M1205,662.4c0,60.1-48.8,108.9-108.9,108.9c-36.8,0-69.3-18.2-89-46.2c-3.2-4.5-6-9.2-8.4-14.1
				c-4.1-8.2-7.2-16.9-9.1-26.1c-1.5-7.2-2.3-14.8-2.3-22.5c0-60.1,48.8-108.9,108.9-108.9c6.6,0,13.1,0.6,19.4,1.7
				c9.1,1.6,17.7,4.4,25.9,8.1c6.8,3.1,13.2,6.9,19.1,11.2c16,11.7,28.7,27.8,36.3,46.3c4.2,10.3,6.9,21.3,7.8,32.8v0
				C1204.9,656.6,1205,659.4,1205,662.4z"/>
			<path class="st10" d="M1187.1,662.4c0,50.3-40.7,91-91,91c-30.7,0-57.9-15.2-74.4-38.6c-2.6-3.7-5-7.7-7.1-11.8
				c-3.4-6.8-6-14.2-7.6-21.8c-1.3-6.1-2-12.4-2-18.8c0-50.3,40.7-91,91-91c5.5,0,10.9,0.5,16.2,1.4c7.6,1.4,14.8,3.7,21.6,6.8
				c5.7,2.6,11,5.7,16,9.4c13.4,9.8,23.9,23.2,30.4,38.7c3.5,8.6,5.8,17.8,6.6,27.4v0C1187,657.5,1187.1,659.9,1187.1,662.4z"/>
			<g>
				<circle class="st13" cx="1096.1" cy="662.4" r="64.4"/>
				<path class="st15" d="M1102.9,598.3c8.9,11.1,14.3,25.1,14.3,40.4c0,35.6-28.8,64.4-64.4,64.4c-2.3,0-4.6-0.1-6.8-0.4
					c11.8,14.6,29.9,24,50.2,24c35.6,0,64.4-28.8,64.4-64.4C1160.6,629.1,1135.3,601.7,1102.9,598.3z"/>
			</g>
		</g>
		<g>
			<path class="st7" d="M235.1,795.4c0,48.9-39.6,88.5-88.5,88.5c-29.9,0-56.3-14.8-72.4-37.5c-2.6-3.6-4.9-7.5-6.9-11.5
				c-3.3-6.6-5.8-13.8-7.4-21.2c-1.2-5.9-1.9-12-1.9-18.3c0-48.9,39.6-88.5,88.5-88.5c5.4,0,10.6,0.5,15.8,1.4
				c7.4,1.3,14.4,3.6,21,6.6c5.5,2.5,10.7,5.6,15.5,9.1c13,9.5,23.3,22.6,29.5,37.7c3.4,8.3,5.6,17.3,6.4,26.7v0
				C235,790.7,235.1,793,235.1,795.4z"/>
			<path class="st8" d="M225.7,795.4c0,43.7-35.4,79.1-79.1,79.1c-26.7,0-50.3-13.2-64.6-33.5c-2.3-3.2-4.3-6.7-6.1-10.2
				c-3-5.9-5.2-12.3-6.6-19c-1.1-5.3-1.7-10.7-1.7-16.3c0-43.7,35.4-79.1,79.1-79.1c4.8,0,9.5,0.4,14.1,1.3
				c6.6,1.2,12.9,3.2,18.8,5.9c4.9,2.3,9.6,5,13.9,8.2c11.6,8.5,20.8,20.2,26.4,33.7c3.1,7.4,5,15.5,5.7,23.8v0
				C225.6,791.2,225.7,793.3,225.7,795.4z"/>
			<path class="st9" d="M215.7,795.4c0,38.2-31,69.1-69.1,69.1c-23.3,0-44-11.6-56.5-29.3c-2-2.8-3.8-5.8-5.4-9
				c-2.6-5.2-4.6-10.8-5.8-16.6c-1-4.6-1.5-9.4-1.5-14.3c0-38.2,31-69.1,69.1-69.1c4.2,0,8.3,0.4,12.3,1.1c5.8,1,11.3,2.8,16.4,5.1
				c4.3,2,8.4,4.4,12.1,7.1c10.2,7.5,18.2,17.6,23.1,29.4c2.7,6.5,4.4,13.5,5,20.8v0C215.6,791.7,215.7,793.5,215.7,795.4z"/>
			<path class="st10" d="M204.3,795.4c0,31.9-25.9,57.8-57.8,57.8c-19.5,0-36.8-9.7-47.2-24.5c-1.7-2.4-3.2-4.9-4.5-7.5
				c-2.2-4.3-3.8-9-4.8-13.9c-0.8-3.8-1.2-7.8-1.2-11.9c0-31.9,25.9-57.8,57.8-57.8c3.5,0,7,0.3,10.3,0.9c4.8,0.9,9.4,2.3,13.7,4.3
				c3.6,1.6,7,3.6,10.1,6c8.5,6.2,15.2,14.7,19.3,24.6c2.2,5.4,3.7,11.3,4.2,17.4v0C204.3,792.3,204.3,793.8,204.3,795.4z"/>
			<g>
				<circle class="st13" cx="146.6" cy="795.4" r="40.9"/>
				<path class="st15" d="M150.9,754.7c5.7,7,9.1,15.9,9.1,25.7c0,22.6-18.3,40.9-40.9,40.9c-1.5,0-2.9-0.1-4.3-0.2
					c7.5,9.3,19,15.3,31.9,15.3c22.6,0,40.9-18.3,40.9-40.9C187.5,774.2,171.4,756.8,150.9,754.7z"/>
			</g>
		</g>
		<g>
			<circle class="st13" cx="283.9" cy="859.1" r="22.9"/>
			<path class="st15" d="M286.3,836.3c3.2,3.9,5.1,8.9,5.1,14.4c0,12.6-10.2,22.9-22.9,22.9c-0.8,0-1.6,0-2.4-0.1
				c4.2,5.2,10.6,8.5,17.8,8.5c12.6,0,22.9-10.2,22.9-22.9C306.8,847.2,297.8,837.5,286.3,836.3z"/>
		</g>
		<g>
			<circle class="st13" cx="327.5" cy="65.5" r="27.6"/>
			<path class="st15" d="M330.4,38.1c3.8,4.7,6.1,10.7,6.1,17.3c0,15.2-12.4,27.6-27.6,27.6c-1,0-1.9-0.1-2.9-0.2
				c5.1,6.3,12.8,10.3,21.5,10.3c15.2,0,27.6-12.4,27.6-27.6C355.1,51.3,344.3,39.5,330.4,38.1z"/>
		</g>
		<g>
			<path class="st9" d="M1207.3,39.6c3.6,10.2-192.2,147.7-202.4,151.3c-10.2,3.6-21.4-1.7-25-11.9c-3.6-10.2,1.7-21.4,11.9-25
				S1203.7,29.4,1207.3,39.6z"/>
			<circle class="st16" cx="998.3" cy="172.5" r="19.6"/>
			<path class="st13" d="M1016.8,165.9c-3.6-10.2-14.8-15.5-25-11.9c-0.6,0.2-1.2,0.5-1.7,0.7c6,1.6,11.2,6.1,13.4,12.4
				c3.4,9.6-1.1,20.1-10.2,24.3c3.7,1,7.7,0.9,11.6-0.5C1015.1,187.3,1020.4,176.1,1016.8,165.9z"/>
		</g>
		<g>
			<path class="st9" d="M1323.8,768c3.3,9.4-176.7,135.8-186.1,139.1c-9.4,3.3-19.7-1.6-23-11c-3.3-9.4,1.6-19.7,11-23
				C1135.1,869.8,1320.5,758.6,1323.8,768z"/>
			<circle class="st16" cx="1131.7" cy="890.1" r="18"/>
			<path class="st13" d="M1148.7,884.1c-3.3-9.4-13.6-14.3-23-11c-0.5,0.2-1.1,0.4-1.6,0.7c5.5,1.5,10.3,5.6,12.3,11.4
				c3.1,8.8-1,18.5-9.4,22.4c3.4,0.9,7.1,0.8,10.7-0.4C1147.1,903.8,1152.1,893.5,1148.7,884.1z"/>
		</g>
		<g>
			<path class="st9" d="M583,610.2c3.8,10.8-203.3,156.2-214.1,160.1c-10.8,3.8-22.6-1.8-26.5-12.6c-3.8-10.8,1.8-22.6,12.6-26.5
				C365.8,727.4,579.2,599.4,583,610.2z"/>
			<circle class="st16" cx="362" cy="750.8" r="20.7"/>
			<path class="st13" d="M381.5,743.8c-3.8-10.8-15.7-16.4-26.5-12.6c-0.6,0.2-1.2,0.5-1.8,0.8c6.4,1.7,11.8,6.4,14.2,13.1
				c3.6,10.2-1.2,21.3-10.8,25.7c3.9,1,8.2,1,12.3-0.5C379.7,766.5,385.3,754.6,381.5,743.8z"/>
		</g>
		<g>
			<path class="st9" d="M859,883.5c2.1,5.8-109,83.8-114.8,85.8c-5.8,2.1-12.1-1-14.2-6.8c-2.1-5.8,1-12.1,6.8-14.2
				C742.5,946.3,856.9,877.7,859,883.5z"/>
			<circle class="st16" cx="740.4" cy="958.8" r="11.1"/>
			<path class="st13" d="M750.9,955.1c-2.1-5.8-8.4-8.8-14.2-6.8c-0.3,0.1-0.7,0.3-1,0.4c3.4,0.9,6.3,3.4,7.6,7
				c1.9,5.5-0.6,11.4-5.8,13.8c2.1,0.6,4.4,0.5,6.6-0.3C749.9,967.3,753,960.9,750.9,955.1z"/>
		</g>
		<g>
			<path class="st9" d="M333.3,269.8C335.9,282.6,78.4,414,65.6,416.6s-25.3-5.7-27.9-18.5c-2.6-12.8,5.7-25.3,18.5-27.9
				C69,367.6,330.7,257,333.3,269.8z"/>
			<circle class="st16" cx="60.9" cy="393.4" r="23.7"/>
			<path class="st13" d="M84.1,388.7c-2.6-12.8-15.1-21.1-27.9-18.5c-0.7,0.2-1.5,0.3-2.2,0.6c6.9,2.9,12.4,9.1,14,17.1
				c2.4,12.1-4.8,23.9-16.3,27.4c4.3,1.8,9.1,2.4,13.9,1.4C78.4,414,86.7,401.5,84.1,388.7z"/>
		</g>
		<path class="st17" d="M247.7,603.4c-10.7,0-19.3,8.6-19.3,19.3s8.6,19.3,19.3,19.3c10.7,0,19.3-8.6,19.3-19.3
			S258.4,603.4,247.7,603.4z M247.7,632.2c-5.2,0-9.4-4.2-9.4-9.4s4.2-9.4,9.4-9.4c5.2,0,9.4,4.2,9.4,9.4S252.9,632.2,247.7,632.2z"
			/>
		<path class="st17" d="M1129.7,479.4c-10.7,0-19.3,8.6-19.3,19.3s8.6,19.3,19.3,19.3c10.7,0,19.3-8.6,19.3-19.3
			S1140.4,479.4,1129.7,479.4z M1129.7,508.2c-5.2,0-9.4-4.2-9.4-9.4s4.2-9.4,9.4-9.4c5.2,0,9.4,4.2,9.4,9.4
			S1134.9,508.2,1129.7,508.2z"/>
		<path class="st17" d="M1273.6,257.6c-8.5,0-15.4,6.9-15.4,15.4s6.9,15.4,15.4,15.4s15.4-6.9,15.4-15.4S1282.1,257.6,1273.6,257.6z
			 M1273.6,280.5c-4.2,0-7.5-3.4-7.5-7.5s3.4-7.5,7.5-7.5c4.2,0,7.5,3.4,7.5,7.5S1277.7,280.5,1273.6,280.5z"/>
		<path class="st17" d="M787,832.4c-10.7,0-19.3,8.6-19.3,19.3S776.3,871,787,871s19.3-8.6,19.3-19.3S797.7,832.4,787,832.4z
			 M787,861.1c-5.2,0-9.4-4.2-9.4-9.4c0-5.2,4.2-9.4,9.4-9.4c5.2,0,9.4,4.2,9.4,9.4C796.4,856.9,792.2,861.1,787,861.1z"/>
		<path class="st17" d="M911.7,141.4c-10.7,0-19.3,8.6-19.3,19.3s8.6,19.3,19.3,19.3s19.3-8.6,19.3-19.3S922.4,141.4,911.7,141.4z
			 M911.7,170.2c-5.2,0-9.4-4.2-9.4-9.4s4.2-9.4,9.4-9.4c5.2,0,9.4,4.2,9.4,9.4S916.9,170.2,911.7,170.2z"/>
		<circle class="st6" cx="252" cy="448" r="7"/>
		<circle class="st6" cx="327" cy="541" r="4"/>
		<circle class="st6" cx="144" cy="714" r="5"/>
		<circle class="st6" cx="293" cy="955" r="4"/>
		<circle class="st6" cx="415" cy="913" r="2"/>
		<circle class="st6" cx="75" cy="947" r="8"/>
		<circle class="st6" cx="110" cy="576" r="5"/>
		<circle class="st6" cx="97" cy="243" r="2"/>
		<circle class="st6" cx="234" cy="96" r="5"/>
		<circle class="st6" cx="216" cy="162" r="3"/>
		<circle class="st6" cx="892.1" cy="669.6" r="7.5"/>
		<circle class="st6" cx="767.6" cy="303.6" r="7.5"/>
		<circle class="st6" cx="487.5" cy="963" r="4.5"/>
		<circle class="st6" cx="982.1" cy="617.1" r="4.5"/>
		<circle class="st6" cx="886.1" cy="555.6" r="4.5"/>
		<circle class="st6" cx="850.8" cy="467.8" r="3.7"/>
		<circle class="st6" cx="625.8" cy="655.3" r="2.2"/>
		<circle class="st6" cx="534.3" cy="781.3" r="2.2"/>
		<circle class="st6" cx="568.1" cy="897.6" r="3"/>
		<circle class="st6" cx="458" cy="807" r="3.7"/>
		<circle class="st6" cx="649" cy="864" r="10.6"/>
		<circle class="st6" cx="721.1" cy="969.6" r="4.5"/>
		<circle class="st6" cx="916.8" cy="796.3" r="2.2"/>
		<path class="st11" d="M867.3,42.6c-10.4,0-18.7,8.4-18.7,18.7c0,10.4,8.4,18.7,18.7,18.7c10.4,0,18.7-8.4,18.7-18.7
			C886.1,51,877.7,42.6,867.3,42.6z M867.3,76.1c-8.1,0-14.7-6.6-14.7-14.7c0-8.1,6.6-14.7,14.7-14.7c8.1,0,14.7,6.6,14.7,14.7
			C882,69.5,875.4,76.1,867.3,76.1z"/>
		<path class="st11" d="M133.9,626.1c-7.9,0-14.2,6.4-14.2,14.2c0,7.9,6.4,14.2,14.2,14.2s14.2-6.4,14.2-14.2
			C148.1,632.5,141.7,626.1,133.9,626.1z M133.9,651.5c-6.2,0-11.2-5-11.2-11.2s5-11.2,11.2-11.2c6.2,0,11.2,5,11.2,11.2
			S140,651.5,133.9,651.5z"/>
		<path class="st11" d="M1285.9,823.3c-7.9,0-14.2,6.4-14.2,14.2c0,7.9,6.4,14.2,14.2,14.2c7.9,0,14.2-6.4,14.2-14.2
			C1300.1,829.7,1293.8,823.3,1285.9,823.3z M1285.9,848.7c-6.2,0-11.2-5-11.2-11.2s5-11.2,11.2-11.2c6.2,0,11.2,5,11.2,11.2
			S1292.1,848.7,1285.9,848.7z"/>
		<path class="st11" d="M792.4,700.3c-7.9,0-14.2,6.4-14.2,14.2s6.4,14.2,14.2,14.2c7.9,0,14.2-6.4,14.2-14.2
			S800.3,700.3,792.4,700.3z M792.4,725.7c-6.2,0-11.2-5-11.2-11.2s5-11.2,11.2-11.2c6.2,0,11.2,5,11.2,11.2
			S798.6,725.7,792.4,725.7z"/>
		<path class="st11" d="M1209,233.7c-2.3,0-4.1,1.8-4.1,4.1c0,2.3,1.8,4.1,4.1,4.1s4.1-1.8,4.1-4.1
			C1213.1,235.6,1211.3,233.7,1209,233.7z M1209,241.1c-1.8,0-3.2-1.4-3.2-3.2c0-1.8,1.4-3.2,3.2-3.2s3.2,1.4,3.2,3.2
			C1212.2,239.6,1210.8,241.1,1209,241.1z"/>
		<path class="st11" d="M996,309.9c-3.1,0-5.7,2.5-5.7,5.7s2.5,5.7,5.7,5.7s5.7-2.5,5.7-5.7S999.1,309.9,996,309.9z M996,320
			c-2.4,0-4.4-2-4.4-4.4c0-2.4,2-4.4,4.4-4.4c2.4,0,4.4,2,4.4,4.4C1000.4,318,998.4,320,996,320z"/>
		<circle class="st11" cx="733.1" cy="48.6" r="4.5"/>
		<circle class="st11" cx="1090.1" cy="56.1" r="4.5"/>
		<circle class="st11" cx="834.3" cy="220.4" r="2.2"/>
		<circle class="st11" cx="1015.1" cy="89.1" r="1.5"/>
		<circle class="st11" cx="1156.1" cy="78.6" r="1.5"/>
		<circle class="st11" cx="1195.8" cy="182.9" r="2.2"/>
		<circle class="st11" cx="1146.3" cy="250.4" r="2.2"/>
		<circle class="st11" cx="1055.6" cy="359.1" r="6"/>
		<circle class="st11" cx="1013.6" cy="197.1" r="1.5"/>
		<circle class="st11" cx="980.6" cy="237.6" r="6"/>
		<circle class="st11" cx="817.8" cy="160.4" r="3.7"/>
		<circle class="st11" cx="556.1" cy="29.1" r="3.2"/>
		<circle class="st6" cx="1090.5" cy="669.5" r="3.5"/>
		<circle class="st6" cx="1323" cy="610" r="4"/>
		<circle class="st6" cx="1316.5" cy="486.5" r="3.5"/>
		<circle class="st6" cx="1312.5" cy="398.5" r="2.5"/>
		<circle class="st6" cx="1325.5" cy="259.5" r="3.5"/>
		<circle class="st6" cx="1315" cy="119" r="4"/>
		<circle class="st6" cx="1293.5" cy="75.5" r="2.5"/>
		<circle class="st6" cx="1060" cy="934" r="9"/>
		<circle class="st6" cx="1083" cy="855" r="6"/>
		<circle class="st6" cx="1028" cy="762" r="3"/>
		<circle class="st6" cx="871" cy="955" r="2"/>
		<circle class="st6" cx="855" cy="769" r="2"/>
		<circle class="st6" cx="668.7" cy="554.7" r="2.3"/>
		<circle class="st6" cx="476.3" cy="574.3" r="2"/>
		<circle class="st6" cx="1228" cy="704" r="5"/>
		<circle class="st6" cx="1305" cy="895" r="4"/>
		<path class="st6" d="M1329,755c0,0-0.9,0-2,0s-2,0-2,0s0.9,0,2,0S1329,755,1329,755z"/>
		<circle class="st6" cx="1221" cy="537" r="6"/>
		<circle class="st6" cx="1244" cy="380" r="13"/>
		<circle class="st6" cx="1051" cy="525" r="6"/>
		<circle class="st6" cx="1313.5" cy="173.5" r="5.5"/>
		<circle class="st6" cx="1360" cy="62" r="5"/>
		<circle class="st6" cx="1187.5" cy="45.5" r="4.5"/>
		<circle class="st6" cx="1050.5" cy="32.5" r="6.5"/>
		<circle class="st6" cx="1305.6" cy="675.6" r="6.5"/>
		<circle class="st6" cx="660" cy="56" r="2"/>
		<circle class="st6" cx="504.5" cy="53.5" r="3.5"/>
		<circle class="st6" cx="436.5" cy="61.5" r="6.5"/>
		<circle class="st6" cx="160" cy="26" r="3"/>
		<circle class="st6" cx="45.5" cy="40.5" r="4.5"/>
		<circle class="st6" cx="34" cy="127" r="4"/>
		<circle class="st6" cx="164" cy="63" r="3"/>
		<circle class="st6" cx="168.5" cy="232.5" r="1.5"/>
		<circle class="st6" cx="103.5" cy="317.5" r="3.5"/>
		<circle class="st6" cx="44.5" cy="267.5" r="4.5"/>
		<circle class="st6" cx="143" cy="563" r="2"/>
		<ellipse class="st6" cx="292" cy="690" rx="2" ry="3"/>
		<circle class="st6" cx="54" cy="676" r="2"/>
		<circle class="st6" cx="42.5" cy="473.5" r="2.5"/>
		<circle class="st6" cx="304.5" cy="371.5" r="1.5"/>
		<circle class="st6" cx="171.5" cy="458.5" r="3.5"/>
		<circle class="st6" cx="178.5" cy="893.5" r="3.5"/>
		<circle class="st6" cx="81.5" cy="810.5" r="4.5"/>
		<circle class="st6" cx="523" cy="742" r="3"/>
		<circle class="st6" cx="783.5" cy="637.5" r="1.5"/>
		<circle class="st6" cx="1329.5" cy="759.5" r="2.5"/>
		<circle class="st6" cx="1276" cy="956" r="4"/>
		<circle class="st6" cx="1350" cy="954" r="5"/>
		<circle class="st6" cx="1362" cy="838" r="2"/>
		<circle class="st6" cx="1172.6" cy="957.1" r="9"/>
		<circle class="st6" cx="1372.5" cy="321.5" r="5.5"/>
		<circle class="st6" cx="1312.5" cy="43.5" r="3.5"/>
		<circle class="st6" cx="1097" cy="125" r="3"/>
		<circle class="st6" cx="810" cy="120" r="3"/>
		<circle class="st6" cx="679" cy="150" r="3"/>
		<circle class="st6" cx="742.1" cy="173.1" r="3"/>
		<circle class="st6" cx="905" cy="257" r="1"/>
		<circle class="st6" cx="982.5" cy="383.5" r="3.5"/>
		<circle class="st6" cx="775" cy="474" r="4"/>
		<circle class="st6" cx="399.5" cy="498.5" r="2.5"/>
	</g>
</g>
</svg>
